<svg id="Layer_1" data-name="Layer 1" xmlns="http://www.w3.org/2000/svg" xmlns:xlink="http://www.w3.org/1999/xlink" viewBox="0 0 402 402"><defs><style>.cls-1,.cls-2{fill:none;}.cls-2{clip-rule:evenodd;}.cls-3{fill:#fff;}.cls-4{clip-path:url(#clip-path);}.cls-5{fill:#3f71b2;}.cls-6{clip-path:url(#clip-path-2);}.cls-7{clip-path:url(#clip-path-3);}.cls-8{clip-path:url(#clip-path-4);}.cls-9{clip-path:url(#clip-path-5);}.cls-10{clip-path:url(#clip-path-6);}.cls-11{clip-path:url(#clip-path-7);}.cls-12{clip-path:url(#clip-path-8);}.cls-13{clip-path:url(#clip-path-9);}.cls-14{fill:#bdccd4;}</style><clipPath id="clip-path"><circle class="cls-1" cx="201" cy="201" r="179"/></clipPath><clipPath id="clip-path-2"><path class="cls-2" d="M168.5,181a31.51,31.51,0,1,1,9.23,22.27A31.39,31.39,0,0,1,168.5,181Z"/></clipPath><clipPath id="clip-path-3"><path class="cls-2" d="M200,211a30,30,0,1,0-30-30A30,30,0,0,0,200,211Zm-60-90H260V241H140Z"/></clipPath><clipPath id="clip-path-4"><path class="cls-2" d="M175.5,181a24.51,24.51,0,1,1,7.18,17.32A24.38,24.38,0,0,1,175.5,181Z"/></clipPath><clipPath id="clip-path-5"><path class="cls-2" d="M200,204a23,23,0,1,0-23-23A23,23,0,0,0,200,204Zm-53-76H253V234H147Z"/></clipPath><clipPath id="clip-path-6"><path class="cls-2" d="M225.89,201.94l19.8,19.8a3.5,3.5,0,0,1-4.95,4.95l-19.8-19.8v-2.12l2.83-2.83Z"/></clipPath><clipPath id="clip-path-7"><path class="cls-2" d="M222,205.83l2.83-2.83,19.8,19.8a2,2,0,0,1-2.83,2.83Zm-42.43,0,45.26-45.26,63.64,63.64-45.26,45.26Z"/></clipPath><clipPath id="clip-path-8"><circle class="cls-1" cx="283.5" cy="71.5" r="7.5"/></clipPath><clipPath id="clip-path-9"><circle class="cls-1" cx="323.5" cy="120.5" r="7.5"/></clipPath></defs><title>get_started_WSand_WKC</title><path class="cls-3" d="M201,401v1c111,0,201-90,201-201S312,0,201,0,0,90,0,201,90,402,201,402v-2a199,199,0,1,1,140.71-58.29A198.32,198.32,0,0,1,201,400Z"/><g class="cls-4"><rect class="cls-3" x="17" y="17" width="368" height="368"/></g><path class="cls-5" d="M95,292.5H323.73a1.5,1.5,0,0,0,0-3H95a1.5,1.5,0,0,0,0,3"/><path class="cls-5" d="M199,133.5l-96.26.43h0a9.12,9.12,0,0,0-6.54,2.71,9.59,9.59,0,0,0-2.69,6.77V249a9.57,9.57,0,0,0,2.69,6.68,9.07,9.07,0,0,0,6.54,2.79,1.5,1.5,0,1,0,0-3,6.09,6.09,0,0,1-4.39-1.88A6.59,6.59,0,0,1,96.5,249V143.41a6.54,6.54,0,0,1,1.83-4.67,6.1,6.1,0,0,1,4.4-1.81h0L199,136.5a1.5,1.5,0,1,0,0-3Z"/><path class="cls-5" d="M102.53,258.45h147.7a10,10,0,0,0,6.83-2.74,9.27,9.27,0,0,0,3-6.73l-.12-78a1.5,1.5,0,0,0-3,0l.12,78h0a6.26,6.26,0,0,1-2,4.55,7,7,0,0,1-4.77,1.92H102.53a1.5,1.5,0,0,0,0,3Z"/><path class="cls-5" d="M109.5,167h22a1.5,1.5,0,0,0,0-3h-22a1.5,1.5,0,0,0,0,3"/><path class="cls-5" d="M109.5,221h22a1.5,1.5,0,0,0,0-3h-22a1.5,1.5,0,0,0,0,3"/><path class="cls-5" d="M109.5,205h22a1.5,1.5,0,0,0,0-3h-22a1.5,1.5,0,0,0,0,3"/><path class="cls-5" d="M109.5,189h22a1.5,1.5,0,0,0,0-3h-22a1.5,1.5,0,0,0,0,3"/><path class="cls-5" d="M148.35,167h15.3a1.5,1.5,0,0,0,0-3h-15.3a1.5,1.5,0,0,0,0,3"/><path class="cls-5" d="M148.35,221h15.3a1.5,1.5,0,0,0,0-3h-15.3a1.5,1.5,0,0,0,0,3"/><path class="cls-5" d="M148.35,205h15.3a1.5,1.5,0,0,0,0-3h-15.3a1.5,1.5,0,0,0,0,3"/><path class="cls-5" d="M148.35,189h15.3a1.5,1.5,0,0,0,0-3h-15.3a1.5,1.5,0,0,0,0,3"/><path class="cls-5" d="M181.41,167h38.14a1.5,1.5,0,0,0,0-3H181.41a1.5,1.5,0,1,0,0,3"/><path class="cls-5" d="M181.41,221h62.18a1.5,1.5,0,1,0,0-3H181.41a1.5,1.5,0,1,0,0,3"/><path class="cls-5" d="M181.41,205h62.18a1.5,1.5,0,1,0,0-3H181.41a1.5,1.5,0,1,0,0,3"/><path class="cls-5" d="M181.41,189h62.18a1.5,1.5,0,1,0,0-3H181.41a1.5,1.5,0,1,0,0,3"/><g class="cls-6"><rect class="cls-3" x="165" y="146" width="70" height="70"/></g><g class="cls-7"><path class="cls-5" d="M200,211v3a33,33,0,1,0-23.33-9.67A32.9,32.9,0,0,0,200,214v-6a27,27,0,1,1,19.09-7.91A26.88,26.88,0,0,1,200,208Z"/></g><g class="cls-8"><rect class="cls-3" x="172" y="153" width="56" height="56"/></g><g class="cls-9"><path class="cls-5" d="M200,204v3a26,26,0,1,0-18.38-7.62A25.88,25.88,0,0,0,200,207v-6a20,20,0,1,1,14.14-5.86A19.9,19.9,0,0,1,200,201Z"/></g><path class="cls-5" d="M187.5,178v1.5a4,4,0,1,0-4-4,4,4,0,0,0,4,4v-3a1,1,0,1,1,1-1,1,1,0,0,1-1,1Z"/><path class="cls-5" d="M195.18,173.25v4.5a1.5,1.5,0,0,0,3,0v-4.5a1.5,1.5,0,0,0-3,0"/><path class="cls-5" d="M205.85,178v1.5a4,4,0,1,0-4-4,4,4,0,0,0,4,4v-3a1,1,0,1,1,1-1,1,1,0,0,1-1,1Z"/><path class="cls-5" d="M213.53,173.25v4.5a1.5,1.5,0,0,0,3,0v-4.5a1.5,1.5,0,0,0-3,0"/><path class="cls-5" d="M213.5,190v1.5a4,4,0,1,0-4-4,4,4,0,0,0,4,4v-3a1,1,0,1,1,1-1,1,1,0,0,1-1,1Z"/><path class="cls-5" d="M184.18,185.25v4.5a1.5,1.5,0,0,0,3,0v-4.5a1.5,1.5,0,0,0-3,0"/><path class="cls-5" d="M194.85,190v1.5a4,4,0,1,0-4-4,4,4,0,0,0,4,4v-3a1,1,0,1,1,1-1,1,1,0,0,1-1,1Z"/><path class="cls-5" d="M202.53,185.25v4.5a1.5,1.5,0,0,0,3,0v-4.5a1.5,1.5,0,0,0-3,0"/><g class="cls-10"><rect class="cls-3" x="227.02" y="195.02" width="14" height="40" transform="translate(-83.5 228.46) rotate(-45)"/></g><g class="cls-11"><path class="cls-5" d="M222,205.83l2.12,2.12.71-.71,17.68,17.68.7-.71h-1a1,1,0,0,0,.3.71l.7-.71h0l-.7-.7a1,1,0,0,0-.3.7h1l-.7-.7.7.7v-1a1,1,0,0,0-.7.3l.7.7v0l.71-.7a1,1,0,0,0-.71-.3v1l.71-.7-19.8-19.8L222,205.83l2.12,2.12L222,205.83,219.88,208l19.8,19.8a5,5,0,0,0,7.07-7.07l-21.92-21.92-7.07,7.07,2.12,2.12Z"/></g><path class="cls-5" d="M257.5,235.5H95.5a1.5,1.5,0,0,0,0,3h162a1.5,1.5,0,0,0,0-3"/><path class="cls-5" d="M145,277.5h64a1.5,1.5,0,0,0,0-3H145a1.5,1.5,0,0,0,0,3"/><polyline class="cls-5" points="176 256 176 277 179 277 179 256"/><path class="cls-5" d="M280,278v1.5h42a1.5,1.5,0,0,0,1.5-1.5V236a1.5,1.5,0,0,0-.44-1.06,1.52,1.52,0,0,0-1.06-.44H280a1.5,1.5,0,0,0-1.5,1.5v42a1.52,1.52,0,0,0,.44,1.06,1.5,1.5,0,0,0,1.06.44V278h1.5V237.5h39v39H280V278h0Z"/><path class="cls-5" d="M289.58,229.92l-3.91-14.6,2.77-9,6.89,6.4,1.79,6.66a1.5,1.5,0,1,0,2.89-.78l-1.89-7.08a1.53,1.53,0,0,0-.43-.71l-9-8.31a1.51,1.51,0,0,0-1.41-.35,1.49,1.49,0,0,0-1,1l-3.61,11.65a1.47,1.47,0,0,0,0,.83l4,15a1.5,1.5,0,0,0,2.9-.78Z"/><path class="cls-5" d="M305.5,230V209.5h9V230a1.5,1.5,0,0,0,3,0V208a1.5,1.5,0,0,0-.44-1.06,1.52,1.52,0,0,0-1.06-.44H304a1.5,1.5,0,0,0-1.5,1.5v22a1.5,1.5,0,0,0,3,0Z"/><path class="cls-5" d="M275.88,194.86l48.95-73.7a1.49,1.49,0,0,0-.09-1.78L284.79,70.76a1.5,1.5,0,1,0-2.32,1.9l39.25,47.77L273.38,193.2a1.5,1.5,0,0,0,2.5,1.66Z"/><path class="cls-5" d="M208.41,131.81l-1.3-.76a4.55,4.55,0,0,0-.61,2.27,4.93,4.93,0,0,0,2.53,4.24h0l46.17,26.26h0a5.19,5.19,0,0,0,2.54.67,5,5,0,0,0,2.32-.57,4.58,4.58,0,0,0,1.77-1.7l10.86-18.55,7.52-12.83,2.51-4.28c.3-.53.55-.94.72-1.23s.26-.46.29-.5h0a27.5,27.5,0,0,0,3.78-14c0-10.59-5.93-21.09-16.3-27a33.32,33.32,0,0,0-16.48-4.4A31.09,31.09,0,0,0,240,83.15a28,28,0,0,0-11,10.53L218,112.5l-10.87,18.55h0l1.3.76,1.29.75L231.6,95.2a25,25,0,0,1,9.8-9.41,28.16,28.16,0,0,1,13.32-3.29,30.34,30.34,0,0,1,15,4c9.46,5.38,14.78,14.91,14.78,24.38a24.44,24.44,0,0,1-3.37,12.45h0l-.28.47L269.09,143.9l-9.85,16.81a1.5,1.5,0,0,1-.6.57,1.9,1.9,0,0,1-.9.22,2.18,2.18,0,0,1-1.06-.28h0L210.52,135h0a1.92,1.92,0,0,1-1-1.63,1.47,1.47,0,0,1,.2-.76h0Z"/><g class="cls-12"><rect class="cls-3" x="271" y="59" width="25" height="25"/></g><circle class="cls-3" cx="283.5" cy="71.5" r="7.5"/><path class="cls-5" d="M291,71.5h-1.5a6,6,0,1,1-1.76-4.24,6,6,0,0,1,1.76,4.24h3a9,9,0,1,0-9,9,9,9,0,0,0,9-9Z"/><g class="cls-13"><rect class="cls-3" x="311" y="108" width="25" height="25"/></g><circle class="cls-3" cx="323.5" cy="120.5" r="7.5"/><path class="cls-5" d="M331,120.5h-1.5a6,6,0,1,1-6-6,6,6,0,0,1,6,6h3a9,9,0,1,0-2.63,6.37,9,9,0,0,0,2.63-6.37Z"/><path class="cls-14" d="M330,185v1a5,5,0,1,0-5-5,5,5,0,0,0,5,5v-2a3,3,0,1,1,3-3,3,3,0,0,1-3,3Z"/><path class="cls-14" d="M113,121v1a5,5,0,1,0-5-5,5,5,0,0,0,5,5v-2a3,3,0,1,1,3-3,3,3,0,0,1-3,3Z"/><path class="cls-14" d="M78,265v1a5,5,0,1,0-5-5,5,5,0,0,0,5,5v-2a3,3,0,1,1,3-3,3,3,0,0,1-3,3Z"/><path class="cls-14" d="M194.32,70.43,190.93,67a1,1,0,0,0-1.41,0,1,1,0,0,0,0,1.42l3.39,3.39a1,1,0,0,0,1.41,0,1,1,0,0,0,0-1.42"/><path class="cls-14" d="M184.64,60.75l-3.39-3.39a1,1,0,0,0-1.41,0,1,1,0,0,0,0,1.42l3.39,3.38a1,1,0,1,0,1.41-1.41"/><path class="cls-14" d="M181.09,71.85l3.39-3.39a1,1,0,0,0,0-1.42,1,1,0,0,0-1.41,0l-3.39,3.39a1,1,0,0,0,0,1.42,1,1,0,0,0,1.41,0"/><path class="cls-14" d="M190.77,62.16l3.39-3.38a1,1,0,0,0,0-1.42,1,1,0,0,0-1.41,0l-3.39,3.39a1,1,0,1,0,1.41,1.41"/><path class="cls-14" d="M303.32,314.43,299.93,311a1,1,0,0,0-1.41,0,1,1,0,0,0,0,1.42l3.39,3.39a1,1,0,0,0,1.41,0,1,1,0,0,0,0-1.42"/><path class="cls-14" d="M293.64,304.75l-3.39-3.39a1,1,0,0,0-1.41,0,1,1,0,0,0,0,1.42l3.39,3.38a1,1,0,1,0,1.41-1.41"/><path class="cls-14" d="M290.09,315.85l3.39-3.39a1,1,0,0,0,0-1.42,1,1,0,0,0-1.41,0l-3.39,3.39a1,1,0,0,0,0,1.42,1,1,0,0,0,1.41,0"/><path class="cls-14" d="M299.77,306.16l3.39-3.38a1,1,0,0,0,0-1.42,1,1,0,0,0-1.41,0l-3.39,3.39a1,1,0,1,0,1.41,1.41"/><path class="cls-14" d="M235.14,307.82l-3.52,3.52a1,1,0,0,0,0,1.42,1,1,0,0,0,1.41,0l3.52-3.52a1,1,0,0,0,0-1.42,1,1,0,0,0-1.41,0"/><path class="cls-14" d="M82.63,104,88,109.37A1,1,0,0,0,89.37,108L84,102.63A1,1,0,0,0,82.63,104"/><path class="cls-14" d="M112.29,323.71l5.34,5.33a1,1,0,1,0,1.41-1.41l-5.33-5.34a1,1,0,0,0-1.42,1.42"/></svg>